<svg width="880" height="840" viewBox="0 0 880 840" xmlns="http://www.w3.org/2000/svg">
    <linearGradient id="a" x1="221.37" y1="761.11" x2="771.67" y2="81.33" gradientUnits="userSpaceOnUse">
        <stop offset="0" stop-color="#3893ff" />
        <stop offset="1" stop-color="#0037ef" />
    </linearGradient>
    <path fill="url(#a)" d="M81.39,633.3C191,769.17,366.14,839.65,538.92,840c93.63.19,193.77-20.28,257.4-94.32,77.72-90.44,90.57-223,80.89-337-10.06-118.52-40-255.59-126.59-342.77-104-104.65-291-78.18-379.67,33.8-23.23,29.32-41,63.95-70.86,86.43-38.84,29.23-89.92,32.51-136.4,38.54C66.58,237.24,6.31,303.48.53,401.07-4.63,488.09,28.37,567.59,81.39,633.3Z" />
    <path class="uk-preserve" fill="#fff" opacity="0.15" d="M877.21,408.66C872.39,351.86,863,290.8,845,233a236.55,236.55,0,0,0-38.1-38.86c-101.36-82.05-250-66.4-332.09,35s-66.4,250,34.95,332.09,250,66.39,332.09-35a235.67,235.67,0,0,0,38-66.67C879.55,442.33,878.62,425.29,877.21,408.66Z" />
</svg>
