<svg width="2100" height="700" viewBox="0 0 2100 700" xmlns="http://www.w3.org/2000/svg">
    <linearGradient id="a" x1="1015.09" y1="408.82" x2="3.09" y2="313.35" gradientUnits="userSpaceOnUse">
        <stop offset="0" stop-color="#fd7096" />
        <stop offset="1" stop-color="#ff386c" />
    </linearGradient>
    <path fill="url(#a)" d="M998.51,516.36c18.17-47.93,16.14-103.58-15.87-145.35-34.77-45.39-88-70.29-139.13-92.74-78.2-34.34-153-75.8-220.6-128.27C520.05,70.21,420.35-18.77,280.39,3.46,168.67,21.21,74.17,106.9,31.39,210.2c-56.2,135.72-39.7,291.42,71.91,391.94,46.76,42.11,134.23,69.12,194.77,79.85,158.31,28.06,321,24.09,475.65-17.3C838.67,647.3,909,627.41,958.24,578.9A175.39,175.39,0,0,0,998.51,516.36Z" />
    <path fill="#fff" opacity="0.15" d="M489.39,699.93A178.59,178.59,0,0,0,549,641.81c53.47-84.68,27.18-197.3-58.73-251.56s-198.91-29.6-252.38,55.08c-47.37,75-32.14,171.92,31.66,230.8,10,2.31,19.57,4.27,28.57,5.86A1162,1162,0,0,0,489.39,699.93Z" />
</svg>
