<svg width="800" height="750" viewBox="0 0 800 750" xmlns="http://www.w3.org/2000/svg">
    <linearGradient id="a" x1="689.31" y1="524.5" x2="4.11" y2="165.56" gradientUnits="userSpaceOnUse">
        <stop offset="0" stop-color="#3893ff" />
        <stop offset="1" stop-color="#0037ef" />
    </linearGradient>
    <path fill="url(#a)" d="M.3,247c-5.95,181.9,75.89,401.43,250.32,481.72,62.93,29,137.22,33,190.41-17.69,24.49-23.37,37.64-55.29,56-83.13,20.27-30.67,47.13-59.52,73.65-84.82,43.9-41.87,90.25-63.78,135.85-103.91,33.35-29.36,64.27-62.87,80.61-103.42,21.21-52.71,14.68-103.56-8.75-147.88-27.68-52.46-79-95.74-136.17-122.12C516,7.49,360.81-8.31,223.32,3.8,164,9,100.74,28.28,59.3,73.6,17.36,119.49,2.38,183.28.3,247Z" />
    <path class="uk-preserve" fill="#fff" opacity="0.15" d="M632.39,147.41a175.89,175.89,0,0,0-11.24-91.09c-89.5-37-191.67-54.1-291-56.11A176.71,176.71,0,0,0,432.8,297.81h0A176.69,176.69,0,0,0,632.39,147.41Z" />
</svg>
