<svg width="650" height="600" viewBox="0 0 650 600" xmlns="http://www.w3.org/2000/svg">
    <linearGradient id="a" x1="606.9" y1="163.18" x2="2.8" y2="444.88" gradientUnits="userSpaceOnUse">
        <stop offset="0" stop-color="#fd7096" />
        <stop offset="1" stop-color="#ff386c" />
    </linearGradient>
    <path fill="url(#a)" d="M409.21,7.72a253.8,253.8,0,0,1,70.7,29.56c71,43.94,132.29,118.9,157.61,196.89,27.33,84.25,11.49,192-64.44,245.52C545.66,499,513.57,510.74,481,518.4c-33.45,7.88-67.71,11.7-101.39,18.54-28.47,5.79-56.89,13.87-82.51,28-24.78,13.62-52.74,26.11-80.52,32.31-41.37,9.24-83.28-5.73-116.77-27.77C50.86,537.21,13.5,488.11,2.91,431.21S10.77,310,55.77,267.61c25.4-24,58-40.53,80.92-66.66,35.22-40.17,41.91-96.28,74.46-138.4C259.16.43,339.32-9.94,409.21,7.72Z" />
    <path class="uk-preserve" fill="#fff" opacity="0.15" d="M175.6,435.33c83,0,150.3-67.8,150.3-151.45S258.61,132.43,175.6,132.43h-.66c-10.15,24.33-20.63,48.42-38.25,68.51-22.92,26.13-55.52,42.7-80.92,66.66A172.76,172.76,0,0,0,26.6,303.82C36.28,378,99.3,435.33,175.6,435.33Z" />
</svg>
