<?xml version="1.0" encoding="UTF-8"?>
<svg id="Layer_1" data-name="Layer 1" xmlns="http://www.w3.org/2000/svg" version="1.1" viewBox="0 0 693.96 130.9">
  <path d="M87.78,85.76l20.32-45.67h2.66l20.13,45.79h-7.2l-6.34-14.15h-15.95l-6.3,14.15h-15.47l-14.6-20.03h-.41v20.03h-6.65v-45.79h9.39c1.92,0,3.84.03,5.75.15,1.23.08,2.5.18,3.7.47,2.63.63,4.86,2.01,6.59,4.22,1.8,2.29,2.57,5.02,2.57,7.97,0,2.45-.53,4.8-1.76,6.89-1.22,2.08-2.94,3.57-5.04,4.56-1.82.86-3.94,1.24-5.98,1.4l14.59,20h0ZM45.41,47.03v38.86h-6.71v-38.86h-9.04v-6.94h24.79v6.94h-9.04ZM133.25,40.09h6.65v45.79h-6.65v-45.79h0ZM174.49,70.73v-30.63h6.65v45.79h-2.8l-24.94-30.35v30.35h-6.76v-45.79h2.76l25.1,30.63h0ZM187.81,40.09h6.65v45.79h-6.65v-45.79h0ZM229.05,70.73v-30.63h6.65v45.79h-2.8l-24.94-30.35v30.35h-6.76v-45.79h2.76l25.1,30.63h0ZM279.66,69.46h-12.66v-6.94h20.1v1.38c-.04,6.32-1.68,12.25-5.98,16.8-4.29,4.53-9.8,6.27-15.74,6.27-7.42,0-13.93-2.55-18.83-8.61-3.57-4.42-5.37-9.57-5.37-15.38,0-4.3,1.03-8.36,3.08-12.07,2.05-3.73,4.9-6.66,8.46-8.74,3.73-2.19,7.83-3.14,12.07-3.14,3.52,0,6.96.66,10.22,2.07,3.49,1.51,6.59,3.86,9.31,6.6l.99,1-5.04,5.06-.89-.92c-2.06-2.14-4.41-3.89-7.06-5.08-2.35-1.06-4.84-1.72-7.4-1.72-3.02,0-5.85.8-8.5,2.32-2.6,1.49-4.71,3.54-6.22,6.25-1.43,2.56-2.2,5.32-2.2,8.31s.8,5.91,2.28,8.54c1.54,2.74,3.66,4.85,6.3,6.37,2.77,1.6,5.75,2.34,8.89,2.34,3.61,0,6.96-.99,9.8-3.43,2.25-1.93,3.7-4.34,4.39-7.26h0ZM348.71,49.68l-5.22,4.26-.79-1.09c-1.58-2.2-3.54-3.95-5.89-5.14-2.39-1.22-4.95-1.75-7.59-1.75-2.97,0-5.76.75-8.35,2.3-2.49,1.49-4.49,3.51-5.92,6.14-1.46,2.68-2.1,5.62-2.1,8.7,0,4.75,1.47,8.83,4.7,12.17,3.31,3.43,7.35,4.89,11.93,4.89,5.4,0,9.76-2.27,13.27-6.6l.79-.98,5.22,4.2-.81,1.1c-2.17,2.92-4.87,5.17-8.04,6.73-3.36,1.66-6.98,2.37-10.68,2.37-6.96,0-13.15-2.32-17.78-8-3.77-4.63-5.47-10.14-5.47-16.23,0-6.59,2.17-12.28,6.63-16.88,4.58-4.73,10.21-6.84,16.56-6.84,3.76,0,7.43.75,10.82,2.51,3.2,1.66,5.89,4.02,7.98,7.08l.74,1.08h0ZM374.4,39.01c6.3,0,11.83,2.19,16.32,6.92,4.44,4.67,6.59,10.41,6.59,17.03s-2.16,12.32-6.56,17.01c-4.41,4.68-9.79,6.99-16.02,6.99s-11.69-2.26-16.13-6.96c-4.38-4.63-6.59-10.27-6.59-16.83,0-4.33.98-8.41,2.99-12.18,1.98-3.71,4.71-6.67,8.19-8.81,3.45-2.12,7.21-3.18,11.2-3.18h0ZM430.78,70.73v-30.63h6.65v45.79h-2.8l-24.94-30.35v30.35h-6.76v-45.79h2.76l25.1,30.63h0ZM440.04,75.96l5.67-3.61.64,1.26c1.47,2.88,3.85,6.42,7.28,6.42,1.15,0,2.23-.28,3.24-.85.92-.52,1.69-1.23,2.22-2.19.5-.9.76-1.86.76-2.9,0-1.27-.47-2.42-1.15-3.45-1.64-2.46-4.43-4.79-6.69-6.6-2.08-1.66-5.05-3.97-6.59-6.16-1.53-2.19-2.41-4.66-2.41-7.4,0-2.06.46-4.02,1.45-5.81.99-1.79,2.37-3.16,4.09-4.15,1.75-1.01,3.64-1.49,5.63-1.49,2.14,0,4.16.57,6.02,1.69,2.25,1.36,4.18,3.73,5.7,5.92l.76,1.09-5.36,4.31-.78-1.09c-.9-1.27-2.27-3.09-3.56-3.9-.89-.56-1.84-.84-2.87-.84-1.19,0-2.28.32-3.15,1.2-.8.8-1.17,1.74-1.17,2.9,0,.75.16,1.48.44,2.16.37.89,1.1,1.76,1.74,2.44.49.5,1.07.94,1.61,1.38,1.16.95,2.35,1.88,3.53,2.8,2.66,2.08,5.76,4.74,7.57,7.7,1.33,2.18,2.18,4.6,2.18,7.22,0,3.59-1.33,6.64-3.74,9.12-2.51,2.59-5.57,3.84-9.06,3.84-2.68,0-5.18-.76-7.42-2.32-2.58-1.8-4.52-4.69-5.98-7.52l-.59-1.16h0ZM472.97,40.09h6.65v27.37c0,1.24,0,2.47.04,3.71.02.62.02,1.26.12,1.89.15,1.28.49,2.57,1.19,3.65.7,1.08,1.78,1.85,2.88,2.4,1.28.65,2.64,1.03,4.06,1.03,1.16,0,2.27-.27,3.32-.78,1.03-.5,1.91-1.21,2.63-2.14.76-.99,1.26-2.15,1.57-3.37.44-1.76.37-4.53.37-6.38v-27.37h6.65v27.35c0,3.2-.21,6.67-1.12,9.74-.83,2.8-2.52,5.06-4.69,6.85-2.48,2.05-5.39,2.93-8.51,2.93s-6.4-.78-9.13-2.72c-2.53-1.8-4.31-4.22-5.21-7.32-.8-2.75-.8-6.59-.8-9.48v-27.35h0ZM516.44,78.95h15.65v6.94h-22.3v-45.79h6.65v38.86h0ZM547.62,47.03v38.86h-6.71v-38.86h-9.04v-6.94h24.79v6.94h-9.04ZM585.26,71.74h-15.95l-6.3,14.15h-7.38l20.37-45.79h2.66l20.13,45.79h-7.2l-6.34-14.15h0ZM629.64,70.73v-30.63h6.65v45.79h-2.8l-24.94-30.35v30.35h-6.76v-45.79h2.76l25.1,30.63h0ZM655.26,47.03v38.86h-6.71v-38.86h-9.04v-6.94h24.79v6.94h-9.04ZM64.61,47.03v11.9l5.72.05c1.68.01,3.97-.06,5.54-.72,1.02-.43,1.84-1.1,2.44-2.09.61-1,.88-2.1.88-3.28s-.29-2.21-.89-3.18c-.58-.93-1.34-1.6-2.31-2.02-1.46-.62-3.92-.66-5.5-.66h-5.88ZM109.42,53.71l-4.94,11.09h9.85l-4.92-11.09h0ZM374.58,45.95c-2.82,0-5.45.8-7.88,2.3-2.46,1.52-4.42,3.56-5.83,6.19-1.45,2.7-2.09,5.63-2.09,8.73,0,4.68,1.49,8.66,4.63,11.97,3.1,3.27,6.8,4.89,11.17,4.89,2.89,0,5.59-.73,8.1-2.25,2.46-1.48,4.39-3.52,5.79-6.13,1.43-2.69,2.08-5.61,2.08-8.69s-.64-5.93-2.08-8.58c-1.42-2.61-3.41-4.63-5.86-6.12-2.49-1.52-5.16-2.31-8.03-2.31h0ZM577.33,53.71l-4.94,11.09h9.85l-4.92-11.09h0Z" style="fill: #2e3192; fill-rule: evenodd; stroke-width: 0px;"/>
  <path d="M211.4,128.49c-1.67,1.73-3.88,2.4-6.29,2.4-3.14,0-5.85-1.15-7.98-3.61-2.31-2.65-3.11-6.08-3.11-9.61s.86-6.99,2.98-9.85c2.23-3,5.46-4.09,8.97-4.09,2.61,0,5.17.63,7.21,2.43,2,1.76,3.07,4.18,3.56,6.86l.14.79-8.38.88-.09-.69c-.22-1.64-.77-3.26-2.56-3.26-2.75,0-2.88,4.41-2.88,6.43,0,1.34.08,4.16.97,5.23.61.73,1.33,1.13,2.25,1.13.68,0,1.28-.2,1.79-.67.32-.29.51-.63.61-1.02h-3.82v-6.77h11.98v15.45h-4.72l-.15-.52c-.14-.5-.3-1.01-.48-1.5h0ZM230.01,130.9c-3.34,0-6.27-1.14-8.58-3.72-2.42-2.7-3.31-6.17-3.31-9.83s.91-6.96,3.16-9.71c2.29-2.79,5.38-3.89,8.81-3.89s6.21,1.12,8.5,3.66c2.39,2.65,3.28,6.05,3.28,9.67s-.89,7.24-3.3,10.01c-2.29,2.63-5.2,3.81-8.55,3.81h0ZM254.36,130.9c-3.34,0-6.27-1.14-8.59-3.72-2.42-2.7-3.31-6.17-3.31-9.83s.91-6.96,3.16-9.71c2.29-2.79,5.38-3.89,8.81-3.89s6.21,1.12,8.5,3.66c2.39,2.65,3.28,6.05,3.28,9.67s-.89,7.24-3.3,10.01c-2.29,2.63-5.2,3.81-8.55,3.81h0ZM267.87,130.52v-26.4h9.77c3.58,0,7.03.99,9.4,3.99,2.07,2.63,3.1,5.67,3.1,9.09,0,3.63-.96,6.95-3.35,9.6-2.34,2.6-5.33,3.72-8.7,3.72h-10.23ZM309.21,104.12v26.4h-8.6v-26.4h8.6ZM319.14,118.06v12.46h-7.22v-26.4h7.86l5.68,9.48c.25.42.5.84.74,1.27-.06-.87-.08-1.75-.08-2.63v-8.12h7.26v26.4h-6.95l-6.66-11.35c-.21-.37-.42-.74-.62-1.12h0ZM343.32,118.06v12.46h-7.22v-26.4h7.87l5.68,9.48c.25.42.5.84.74,1.27-.06-.87-.08-1.75-.08-2.63v-8.12h7.26v26.4h-6.95l-6.66-11.35c-.21-.37-.42-.74-.62-1.12h0ZM371.11,130.9c-3.34,0-6.27-1.14-8.59-3.72-2.42-2.7-3.31-6.17-3.31-9.83s.91-6.96,3.16-9.71c2.29-2.79,5.38-3.89,8.81-3.89s6.21,1.12,8.5,3.66c2.39,2.65,3.28,6.05,3.28,9.67s-.89,7.24-3.3,10.01c-2.29,2.63-5.2,3.81-8.55,3.81h0ZM394.61,118.21l3.85-14.09h7.38l-7.72,26.4h-8.35l-8.09-26.4h9.06l3.87,14.07s0,.02,0,.02h0ZM416.98,125.62h-5.36l-1.39,4.9h-7.29l7.7-26.4h8.63l7.83,26.4h-8.82l-1.3-4.9h0ZM437.28,111.56v18.96h-8.21v-18.96h-4.86v-7.44h17.94v7.44h-4.86ZM451.42,104.12v26.4h-8.6v-26.4h8.6ZM464.97,130.9c-3.34,0-6.27-1.14-8.59-3.72-2.42-2.7-3.31-6.17-3.31-9.83s.91-6.96,3.16-9.71c2.29-2.79,5.38-3.89,8.81-3.89s6.21,1.12,8.5,3.66c2.39,2.65,3.28,6.05,3.28,9.67s-.89,7.24-3.3,10.01c-2.29,2.63-5.2,3.81-8.55,3.81h0ZM485.7,118.06v12.46h-7.22v-26.4h7.87l5.68,9.48c.25.42.5.84.74,1.27-.06-.87-.08-1.75-.08-2.63v-8.12h7.26v26.4h-6.95l-6.66-11.35c-.21-.37-.42-.74-.62-1.11h0ZM229.98,123.79c.94,0,1.6-.4,2.02-1.29.67-1.42.73-4.3.73-5.86,0-1.85-.12-5.78-2.62-5.78-2.77,0-2.88,4.7-2.88,6.7s.12,6.24,2.74,6.24h0ZM254.33,123.79c.94,0,1.6-.4,2.02-1.29.67-1.42.73-4.3.73-5.86,0-1.85-.12-5.78-2.62-5.78-2.77,0-2.88,4.7-2.88,6.7s.12,6.24,2.74,6.24h0ZM276.47,123.34h1.19c1.08,0,1.86-.64,2.46-1.54.87-1.31,1.11-3.04,1.11-4.62s-.27-3.02-1-4.34c-.58-1.06-1.4-1.62-2.57-1.62h-1.19v12.12h0ZM371.08,123.79c.94,0,1.6-.4,2.02-1.29.67-1.42.73-4.3.73-5.86,0-1.85-.12-5.78-2.62-5.78-2.77,0-2.88,4.7-2.88,6.7s.12,6.24,2.74,6.24h0ZM413.32,118.7h1.95l-.98-3.75-.97,3.75h0ZM464.94,123.79c.94,0,1.6-.4,2.02-1.29.67-1.42.73-4.3.73-5.86,0-1.85-.12-5.78-2.62-5.78-2.77,0-2.88,4.7-2.88,6.7s.12,6.24,2.74,6.24h0Z" style="fill: #2e3192; fill-rule: evenodd; stroke-width: 0px;"/>
  <polygon points="677.86 108.9 677.86 17.08 16.09 17.08 16.09 108.9 180.64 108.9 180.64 125.98 0 125.98 0 0 693.96 0 693.96 125.98 513.32 125.98 513.32 108.9 677.86 108.9 677.86 108.9" style="fill: #2e3192; fill-rule: evenodd; stroke-width: 0px;"/>
</svg>