<?xml version="1.0" encoding="UTF-8"?>
<svg xmlns="http://www.w3.org/2000/svg" version="1.1" viewBox="0 0 681 295.4">
  <!-- Generator: Adobe Illustrator 28.6.0, SVG Export Plug-In . SVG Version: 1.2.0 Build 709)  -->
  <g>
    <g id="Layer_1">
      <polygon points="257.5 246.4 681 246.4 681 258.1 257.5 258.1 257.5 246.4 257.5 246.4" style="fill: #fff; fill-rule: evenodd;"/>
      <path d="M569,93.2h40.6v15.7h-40.6v43c0,6.2,3.3,12.2,7,17.1,4,5.2,8.8,10.3,14.7,13.6,5.3,3,11.2,4.2,17.3,4.2s10.3-1.6,14.9-3.4c4.1-1.6,9.2-4,12.2-7.4l1.2-1.4,10.6,10.6-1.2,1.2c-10.3,10.5-23,15.7-37.7,15.7s-26.7-5.5-37.3-15c-10.6-9.4-16.9-21.1-16.9-35.4V0h15.4v93.2h0Z" style="fill: #fff; fill-rule: evenodd;"/>
      <path d="M550.4,186.3c-10.3,10.5-23,15.7-37.7,15.7s-27.7-5.4-38.3-16c-10.6-10.6-16-23.3-16-38.3s5.4-27.7,16-38.3c10.6-10.6,23.3-16,38.3-16s27.3,4.7,37.7,15.1l1,1-.8,1.2c-2.1,2.9-5.8,6.4-8.4,9l-1.3,1.3-1.2-1.4c-2.9-3.4-8.1-5.8-12.2-7.4-4.6-1.8-9.9-3.4-14.9-3.4-10.8,0-19.8,3.9-27.4,11.5-7.6,7.6-11.5,16.7-11.5,27.4s3.9,19.8,11.5,27.4,16.7,11.5,27.4,11.5,10.3-1.6,14.9-3.4c4.1-1.6,9.2-4,12.2-7.4l1.2-1.4,10.6,10.6-1.2,1.2h0Z" style="fill: #fff; fill-rule: evenodd;"/>
      <path d="M360.7,155.2c.4,1.6,1.5,4,1.9,5.3.5,1.5,1.8,5.1,2.6,6.3,8.1,11.6,18.8,19.7,33.4,19.7s10.3-1.6,14.9-3.4c4.1-1.6,9.2-4,12.2-7.4l1.2-1.4,10.6,10.6-1.2,1.2c-10.3,10.5-23,15.7-37.7,15.7s-27.7-5.4-38.3-16-16-23.3-16-38.3,5.4-27.7,16-38.3c10.6-10.6,23.3-16,38.3-16s34.5,8.1,45.2,24.1c4.8,7.1,9.3,16.1,9.3,24.9v12.8h-92.4,0ZM436.5,139.9c-1.9-8.6-6.2-15.8-12.9-21.7-7.2-6.2-15.5-9.4-25-9.4s-17.8,3.1-24.9,9.4c-6.7,5.9-10.9,13.1-12.8,21.7h75.6Z" style="fill: #fff; fill-rule: evenodd;"/>
      <path d="M244.9,185.9v109.5h-15.4V93.4h15.4v16.2c10.6-10.3,23.4-16.2,38.6-16.2s28.1,5.3,38.8,16c10.6,10.6,16.1,23.3,16.1,38.3s-5.5,27.7-16.1,38.3c-10.7,10.7-23.7,16-38.8,16s-28.1-5.5-38.6-16.1h0ZM322.7,147.7c0-10.8-3.7-19.9-11.3-27.6s-16.8-11.3-27.6-11.3-19.8,3.9-27.4,11.5-11.5,16.7-11.5,27.4,3.9,19.8,11.5,27.4,16.7,11.5,27.4,11.5,19.8-3.9,27.4-11.5c7.6-7.6,11.5-16.7,11.5-27.4h0Z" style="fill: #fff; fill-rule: evenodd;"/>
      <path d="M16.4,155.2c.4,1.6,1.5,4,1.9,5.3.5,1.5,1.8,5.1,2.6,6.3,8.1,11.6,18.8,19.7,33.4,19.7s10.3-1.6,14.9-3.4c4.1-1.6,9.2-4,12.2-7.4l1.2-1.4,10.6,10.6-1.2,1.2c-10.3,10.5-23,15.7-37.7,15.7s-27.7-5.4-38.3-16C5.4,175.4,0,162.7,0,147.7s5.4-27.7,16-38.3c10.6-10.6,23.3-16,38.3-16s34.5,8.1,45.2,24.1c4.8,7.1,9.3,16.1,9.3,24.9v12.8H16.4ZM92.2,139.9c-1.9-8.6-6.2-15.8-12.9-21.7-7.2-6.2-15.5-9.4-25-9.4s-17.8,3.1-24.9,9.4c-6.7,5.9-10.9,13.1-12.8,21.7h75.6Z" style="fill: #fff; fill-rule: evenodd;"/>
      <polygon points="179.1 148.3 224.3 201.9 205.6 201.9 168.7 160.5 131.5 201.9 112.8 201.9 157.8 148.3 112.3 93.4 130.4 93.4 168.1 136.1 206.8 93.4 224.9 93.4 179.1 148.3 179.1 148.3" style="fill: #fff; fill-rule: evenodd;"/>
      <path d="M667.4,170.3c7.5,0,13.6,6,13.6,13.4s-6.1,13.4-13.6,13.4-13.6-6-13.6-13.4,6.1-13.4,13.6-13.4h0Z" style="fill: #fff; fill-rule: evenodd;"/>
    </g>
  </g>
</svg>