<?xml version="1.0" encoding="UTF-8"?>
<svg xmlns="http://www.w3.org/2000/svg" version="1.1" viewBox="0 0 681 295.39">
  <polygon points="257.45 246.44 680.99 246.44 680.99 258.08 257.45 258.08 257.45 246.44 257.45 246.44" style="fill: #ed1c24; fill-rule: evenodd; stroke-width: 0px;"/>
  <path d="M568.96,93.15h40.59v15.65h-40.59v42.99c0,6.25,3.28,12.23,6.96,17.08,3.98,5.25,8.85,10.33,14.66,13.56,5.33,2.96,11.22,4.17,17.28,4.17,4.93,0,10.3-1.63,14.86-3.39,4.12-1.59,9.24-4.02,12.18-7.41l1.19-1.37,10.64,10.64-1.17,1.2c-10.33,10.53-22.97,15.69-37.71,15.69s-26.7-5.54-37.34-15.03c-10.58-9.45-16.92-21.11-16.92-35.43V0h15.36v93.15h0Z" style="fill: #ffc844; fill-rule: evenodd; stroke-width: 0px;"/>
  <path d="M550.42,186.26c-10.33,10.53-22.97,15.69-37.71,15.69s-27.72-5.41-38.28-15.97c-10.57-10.56-15.97-23.33-15.97-38.28s5.41-27.72,15.97-38.28c10.57-10.57,23.33-15.97,38.28-15.97s27.33,4.73,37.7,15.1l1.01,1.01-.84,1.17c-2.1,2.93-5.79,6.41-8.36,8.97l-1.28,1.29-1.19-1.37c-2.94-3.4-8.07-5.82-12.18-7.42-4.56-1.77-9.93-3.39-14.87-3.39-10.75,0-19.83,3.89-27.42,11.48-7.59,7.59-11.48,16.67-11.48,27.42s3.89,19.83,11.48,27.42c7.59,7.59,16.67,11.48,27.42,11.48,4.93,0,10.3-1.63,14.87-3.39,4.12-1.59,9.24-4.02,12.18-7.41l1.19-1.37,10.64,10.64-1.17,1.2h0Z" style="fill: #44b97a; fill-rule: evenodd; stroke-width: 0px;"/>
  <path d="M360.66,155.23c.44,1.61,1.45,4.02,1.93,5.31.55,1.46,1.78,5.12,2.58,6.34,8.11,11.58,18.82,19.72,33.36,19.72,4.93,0,10.3-1.63,14.86-3.39,4.12-1.59,9.24-4.02,12.18-7.41l1.19-1.37,10.64,10.64-1.17,1.2c-10.33,10.53-22.97,15.69-37.71,15.69s-27.72-5.41-38.28-15.97c-10.56-10.56-15.97-23.33-15.97-38.28s5.41-27.72,15.97-38.28c10.57-10.57,23.33-15.97,38.28-15.97,19.3,0,34.47,8.07,45.21,24.11,4.77,7.13,9.34,16.1,9.34,24.89v12.79h-92.42ZM436.48,139.87c-1.91-8.6-6.18-15.84-12.92-21.71-7.18-6.25-15.51-9.37-25.03-9.37s-17.76,3.09-24.87,9.36c-6.68,5.89-10.88,13.15-12.78,21.72h75.6Z" style="fill: #c84b9b; fill-rule: evenodd; stroke-width: 0px;"/>
  <path d="M244.87,185.9v109.5h-15.36V93.44h15.36v16.23c10.63-10.27,23.37-16.23,38.56-16.23s28.1,5.31,38.81,15.97c10.6,10.55,16.07,23.32,16.07,38.29s-5.47,27.73-16.07,38.29c-10.71,10.66-23.71,15.97-38.81,15.97s-28.12-5.49-38.56-16.05h0ZM322.67,147.7c0-10.77-3.71-19.95-11.33-27.57-7.62-7.62-16.8-11.33-27.57-11.33s-19.83,3.89-27.42,11.48-11.48,16.67-11.48,27.42,3.89,19.83,11.48,27.42c7.59,7.59,16.68,11.48,27.42,11.48s19.83-3.89,27.42-11.48c7.59-7.59,11.48-16.68,11.48-27.42h0Z" style="fill: #05b2e0; fill-rule: evenodd; stroke-width: 0px;"/>
  <path d="M16.38,155.23c.44,1.61,1.45,4.02,1.93,5.31.55,1.46,1.78,5.12,2.58,6.34,8.11,11.58,18.82,19.72,33.36,19.72,4.93,0,10.3-1.63,14.87-3.39,4.12-1.59,9.24-4.02,12.18-7.41l1.19-1.37,10.64,10.64-1.17,1.2c-10.33,10.53-22.97,15.69-37.71,15.69s-27.72-5.41-38.28-15.97c-10.57-10.56-15.97-23.33-15.97-38.28s5.41-27.72,15.97-38.28c10.57-10.57,23.33-15.97,38.28-15.97,19.3,0,34.47,8.07,45.21,24.11,4.77,7.13,9.34,16.1,9.34,24.89v12.79H16.38ZM92.2,139.87c-1.91-8.6-6.18-15.84-12.92-21.71-7.18-6.25-15.51-9.37-25.03-9.37s-17.76,3.09-24.87,9.36c-6.68,5.89-10.89,13.15-12.78,21.72h75.6Z" style="fill: #f26922; fill-rule: evenodd; stroke-width: 0px;"/>
  <polygon points="179.1 148.28 224.34 201.95 205.63 201.95 168.72 160.46 131.52 201.95 112.83 201.95 157.76 148.28 112.27 93.44 130.35 93.44 168.15 136.11 206.81 93.44 224.9 93.44 179.1 148.28 179.1 148.28" style="fill: #ee3536; fill-rule: evenodd; stroke-width: 0px;"/>
  <path d="M667.44,170.32c7.49,0,13.56,5.98,13.56,13.35s-6.07,13.35-13.56,13.35-13.56-5.97-13.56-13.35,6.07-13.35,13.56-13.35h0Z" style="fill: #ed1c24; fill-rule: evenodd; stroke-width: 0px;"/>
</svg>