<svg width="630" height="540" viewBox="0 0 630 540" xmlns="http://www.w3.org/2000/svg">
    <linearGradient id="a" x1="611.54" y1="327.46" x2="-5.35" y2="218.68" gradientUnits="userSpaceOnUse">
        <stop offset="0" stop-color="#3893ff" />
        <stop offset="1" stop-color="#0037ef" />
    </linearGradient>
    <path fill="url(#a)" d="M151.85,15l1.14-.37C205.9-2.45,263.05-3,318.07,5,372.87,13,426.19,29,479,45.32c42.05,13,87.62,31.11,116,66.3,32.57,40.46,40.6,79.13,31.72,130.29-11.71,67.39-60.07,113.28-112,151-42.64,31-73.36,58.23-117,94.76C364.2,515.69,338.24,540,293.57,540c-61,.07-114.8-37.31-156.2-78.78C60.13,383.85-31.17,259.4,10.41,144,32.81,81.9,90,35.28,151.85,15Z" />
    <path class="uk-preserve" fill="#fff" opacity="0.15" d="M444,164.16v0a171.29,171.29,0,0,0-3.59-130.51C400.24,21.72,359.58,11,318.07,5,263.05-3,205.9-2.45,153,14.62l-1.14.37c-6.85,2.25-13.64,4.84-20.34,7.72a174.87,174.87,0,0,0-8.86,19.61A171.85,171.85,0,0,0,444,164.16Z" />
</svg>
