<svg width="650" height="670" viewBox="0 0 650 670" xmlns="http://www.w3.org/2000/svg">
    <linearGradient id="a" x1="-5.81" y1="390.63" x2="632.55" y2="307.84" gradientUnits="userSpaceOnUse">
        <stop offset="0" stop-color="#fd7096" />
        <stop offset="1" stop-color="#ff386c" />
    </linearGradient>
    <path fill="url(#a)" d="M528.49,68.57c-.72-1-1.44-1.95-2.17-2.92C490.46,17.82,435.6-12.23,375.6,4.82,306.65,24.4,263.21,90.25,216.26,140Q143.39,217.24,67.7,291.72C26.8,332-7.91,387.13,1.58,447.19,14,526.25,87.34,584,155.62,615.29c106,48.53,226.23,65.8,341.36,47.68C716.29,628.46,648.34,382.49,604.53,232,587.89,174.74,564,116.91,528.49,68.57Z" />
    <path class="uk-preserve" fill="#fff" opacity="0.15" d="M364.42,319.36c0-84.82-67.14-153.58-150-153.58a148,148,0,0,0-24.7,2.08Q129.68,230.71,67.7,291.72l-.91.91a157.89,157.89,0,0,0-2.27,26.73c0,84.82,67.13,153.58,150,153.58S364.42,404.18,364.42,319.36Z" />
</svg>
